<?xml version="1.0" standalone="no"?>
<!DOCTYPE svg PUBLIC "-//W3C//DTD SVG 1.1//EN" "http://www.w3.org/Graphics/SVG/1.1/DTD/svg11.dtd" >
<svg xmlns="http://www.w3.org/2000/svg">
<metadata></metadata>
<defs>
<font id="arialblack" horiz-adv-x="1370" >
<font-face units-per-em="2048" ascent="1638" descent="-410" />
<missing-glyph horiz-adv-x="685" />
<glyph horiz-adv-x="2048" />
<glyph horiz-adv-x="2048" />
<glyph unicode="&#xd;" horiz-adv-x="2048" />
<glyph unicode=" "  horiz-adv-x="685" />
<glyph unicode="&#x09;" horiz-adv-x="685" />
<glyph unicode="&#xa0;" horiz-adv-x="685" />
<glyph unicode="!" horiz-adv-x="684" d="M124 1136v335h437v-335l-84 -673h-270zM140 0v360h407v-360h-407z" />
<glyph unicode="&#x22;" horiz-adv-x="1027" d="M48 1228v243h408v-243l-65 -298h-277zM571 1228v243h408v-243l-65 -298h-277z" />
<glyph unicode="#" horiz-adv-x="1356" d="M60 329v277h194l52 254h-246v277h301l72 359h285l-73 -359h220l72 359h285l-70 -359h138v-277h-194l-51 -254h245v-277h-301l-71 -353h-286l71 353h-219l-72 -353h-285l74 353h-141zM539 606h220l52 254h-219z" />
<glyph unicode="$" d="M54 422l406 47q18 -99 48.5 -143t100.5 -78v354q-203 57 -287.5 97.5t-147 131.5t-62.5 222q0 178 125 298t372 133v100h147v-100q224 -14 343 -106t155 -253l-373 -59q-28 71 -50.5 98.5t-74.5 55.5v-290q305 -81 407 -171q135 -122 135 -308q0 -109 -48.5 -200.5 t-124 -153t-161 -89t-208.5 -32.5v-190h-147v190q-147 13 -239 47.5t-158.5 96t-103 132t-54.5 170.5zM495 1100q0 -44 25.5 -77t88.5 -55v257q-64 -21 -89 -52t-25 -73zM756 238q85 19 124.5 62.5t39.5 97.5q0 47 -33.5 87t-130.5 74v-321z" />
<glyph unicode="%" horiz-adv-x="2055" d="M99 1110q0 102 45 194.5t136.5 142t217.5 49.5q185 0 291 -105.5t106 -280.5q0 -177 -106 -282t-291 -105q-126 0 -217.5 49.5t-136.5 141.5t-45 196zM381 1108q0 -125 40 -181q26 -37 77 -37q50 0 75 37q40 56 40 181q0 123 -40 181q-25 36 -75 35q-50 0 -77 -35 q-40 -57 -40 -181zM501 -75l848 1571h212l-851 -1571h-209zM1160 314q0 103 44.5 195t136.5 142.5t216 50.5q186 0 292.5 -106t106.5 -282q0 -175 -106.5 -281.5t-292.5 -106.5q-124 0 -216 50.5t-136.5 142.5t-44.5 195zM1442 312q0 -124 40 -181q25 -36 75 -35q50 0 77 35 q40 57 40 181q0 125 -40 182q-26 36 -77 36q-50 0 -75 -37q-40 -56 -40 -181z" />
<glyph unicode="&#x26;" horiz-adv-x="1827" d="M153 395q0 126 84.5 238t276.5 189q-80 97 -110.5 169t-30.5 146q0 156 119.5 257.5t362.5 101.5q248 0 364.5 -96.5t116.5 -230.5q0 -75 -36 -144t-86 -112.5t-180 -128.5q108 -108 224 -200q32 62 54 131l319 -71q-25 -88 -48 -141t-65 -126l153 -105q28 -18 72 -43 l-220 -253q-60 32 -124.5 74t-116.5 72q-106 -70 -212 -102q-148 -44 -335 -44q-294 0 -438 122.5t-144 296.5zM557 425q0 -73 63.5 -130t164.5 -57q109 0 245 85q-130 100 -334 293q-84 -59 -111.5 -101t-27.5 -90zM732 1154q0 -62 110 -180q79 43 122 93.5t43 95.5 q0 47 -36 79.5t-99 32.5q-62 0 -101 -36t-39 -85z" />
<glyph unicode="'" horiz-adv-x="570" d="M85 1228v243h408v-243l-65 -298h-277z" />
<glyph unicode="(" horiz-adv-x="799" d="M112 535q0 254 83 483t270 478h254q-131 -291 -189 -538q-49 -209 -49 -447q0 -459 238 -944h-254q-195 276 -274 499.5t-79 468.5z" />
<glyph unicode=")" horiz-adv-x="799" d="M81 -433h254q195 276 274 499.5t79 468.5q0 254 -83 483t-270 478h-254q131 -291 189 -538q49 -209 49 -447q0 -459 -238 -944z" />
<glyph unicode="*" horiz-adv-x="1142" d="M177 1133l73 212l140 -64q22 -9 109 -62q-19 84 -24 126l-20 151h221l-18 -151q-6 -56 -25 -126q38 19 51 27q42 23 64 32l139 67l69 -212l-154 -32q-42 -8 -126 -11q57 -44 90 -81l104 -113l-181 -136l-74 136q-16 29 -52 113q-39 -92 -52 -113l-75 -136l-186 136 l112 113q47 47 93 81q-46 4 -122 18z" />
<glyph unicode="+" horiz-adv-x="1356" d="M127 572v325h385v386h324v-386h386v-325h-386v-384h-324v384h-385z" />
<glyph unicode="," horiz-adv-x="684" d="M124 0v405h437v-336q0 -186 -77.5 -293t-263.5 -190l-96 179q117 55 160.5 108t48.5 127h-209z" />
<glyph unicode="-" horiz-adv-x="684" d="M45 378v316h594v-316h-594z" />
<glyph unicode="." horiz-adv-x="684" d="M124 0v410h437v-410h-437z" />
<glyph unicode="/" horiz-adv-x="570" d="M1 -24l367 1520h209l-369 -1520h-207z" />
<glyph unicode="0" d="M84 741q0 420 151 587.5t460 167.5q149 0 244 -36.5t155.5 -95.5t95.5 -123.5t56 -150.5q41 -165 41 -343q0 -401 -135.5 -586.5t-466.5 -185.5q-186 0 -300.5 59t-188.5 174q-53 81 -82.5 222t-29.5 311zM490 740q0 -280 49.5 -383t144.5 -103q62 0 107.5 43.5t67 138 t21.5 294.5q0 293 -49.5 394t-148.5 101q-102 0 -147 -103.5t-45 -381.5z" />
<glyph unicode="1" d="M168 767v335q208 67 323.5 161.5t180.5 232.5h338v-1496h-413v980q-100 -76 -194 -123t-235 -90z" />
<glyph unicode="2" d="M54 0q21 182 128 342t401 377q180 134 230 203t50 132q0 67 -49.5 114.5t-125.5 47.5q-78 0 -127.5 -49t-66.5 -173l-410 33q24 172 88.5 269t181.5 148.5t323 51.5q216 0 336 -49t189 -151t69 -228q0 -135 -79 -257.5t-287 -268.5q-123 -85 -165 -119t-98 -90h638v-333 h-1226z" />
<glyph unicode="3" d="M72 389l409 53q24 -123 74.5 -170.5t129.5 -47.5q82 0 136.5 60t54.5 160q0 103 -52.5 159.5t-142.5 56.5q-48 0 -133 -25l21 292q34 -5 53 -5q81 0 134.5 51.5t53.5 121.5q0 67 -40 107t-110 40q-72 0 -117.5 -43.5t-61.5 -152.5l-386 69q48 184 184.5 282.5t387.5 98.5 q289 0 417 -107.5t128 -269.5q0 -95 -52 -172.5t-157 -135.5q85 -21 130 -50q73 -45 114 -118.5t41 -176.5q0 -128 -67.5 -246t-194 -181.5t-332.5 -63.5q-201 0 -316.5 47t-190.5 138t-115 229z" />
<glyph unicode="4" d="M42 275v336l745 885h356v-904h185v-317h-185v-275h-356v275h-745zM393 592h394v462z" />
<glyph unicode="5" d="M67 381l414 45q15 -99 70 -150.5t132 -51.5q85 0 140.5 64.5t55.5 193.5q0 131 -56 192t-150 61q-59 0 -114 -28q-41 -21 -91 -77l-347 51l129 790h970v-326h-657l-35 -221q68 32 135 48t132 16q221 0 358.5 -133t137.5 -336q0 -143 -71 -274.5t-201 -200.5t-333 -69 q-145 0 -249 27.5t-176.5 82.5t-117.5 124t-76 172z" />
<glyph unicode="6" d="M86 728q0 398 167.5 583t464.5 185q176 0 278 -40.5t169 -118.5t103 -197l-407 -50q-16 85 -53.5 120.5t-93.5 35.5q-99 0 -154 -101q-40 -72 -59 -309q73 74 150.5 109.5t178.5 35.5q197 0 332.5 -140t135.5 -356q0 -146 -68.5 -266.5t-190.5 -182t-305 -61.5 q-221 0 -354.5 75t-213.5 240.5t-80 437.5zM515 485q0 -120 60 -187.5t148 -67.5q80 0 134 61t54 183q0 124 -56 189.5t-140 65.5q-85 0 -142.5 -63.5t-57.5 -180.5z" />
<glyph unicode="7" d="M91 1126v345h1193v-276q-155 -141 -259 -304q-127 -199 -200 -443q-59 -189 -78 -448h-408q48 360 151.5 604t327.5 522h-727z" />
<glyph unicode="8" d="M84 433q0 129 60.5 219t185.5 139q-96 51 -140 114q-61 86 -61 199q0 185 174 302q135 90 359 90q294 0 435 -112t141 -283q0 -99 -56 -186q-42 -64 -132 -124q119 -57 178 -151.5t59 -208.5q0 -111 -51 -207t-124.5 -148t-183.5 -76.5t-235 -24.5q-233 0 -356.5 55 t-188 162.5t-64.5 240.5zM492 446q0 -97 59 -158.5t135 -61.5q74 0 132 62.5t58 158.5q0 98 -58.5 160t-135.5 62t-133.5 -60t-56.5 -163zM514 1080q0 -76 47.5 -123t126.5 -47q71 0 116 46.5t45 119.5q0 76 -47 124t-120 48q-75 0 -121.5 -47t-46.5 -121z" />
<glyph unicode="9" d="M71 985q0 147 69.5 267.5t191 182t304.5 61.5q221 0 354.5 -75.5t213 -240.5t79.5 -436q0 -399 -167.5 -584t-464.5 -185q-175 0 -276.5 40.5t-168.5 119t-104 195.5l407 51q16 -85 54 -120t93 -35q99 0 154 99q40 74 60 310q-73 -75 -150.5 -110t-178.5 -35 q-198 0 -334 140.5t-136 354.5zM460 997q0 -124 55.5 -189t138.5 -65q86 0 143.5 63t57.5 180q0 120 -60 187.5t-147 67.5q-81 0 -134.5 -61t-53.5 -183z" />
<glyph unicode=":" horiz-adv-x="684" d="M124 0v410h437v-410h-437zM124 656v410h437v-410h-437z" />
<glyph unicode=";" horiz-adv-x="684" d="M124 0v405h437v-336q0 -186 -77.5 -293t-263.5 -190l-96 179q117 55 160.5 108t48.5 127h-209zM124 656v410h437v-410h-437z" />
<glyph unicode="&#x3c;" horiz-adv-x="1356" d="M107 587v297l1142 474v-356l-694 -267l694 -269v-354z" />
<glyph unicode="=" horiz-adv-x="1356" d="M126 326v325h1096v-325h-1096zM126 819v326h1096v-326h-1096z" />
<glyph unicode="&#x3e;" horiz-adv-x="1356" d="M108 112l1142 475v297l-1142 474v-356l694 -267l-694 -269v-354z" />
<glyph unicode="?" horiz-adv-x="1255" d="M74 1020q20 214 155.5 345t416.5 131q219 0 354 -91q182 -124 182 -329q0 -86 -47 -165t-193 -194q-101 -80 -127.5 -128.5t-26.5 -126.5h-382v38q0 97 22.5 157.5t66 111t195.5 176.5q82 66 82 122q0 55 -32.5 85.5t-99.5 30.5q-71 0 -117.5 -47t-59.5 -165zM393 0v360 h409v-360h-409z" />
<glyph unicode="@" horiz-adv-x="1520" d="M-6 617q0 251 108 456t286.5 314.5t423.5 109.5q316 0 514 -200.5t198 -518.5q0 -189 -77 -345.5t-227 -247.5q-116 -70 -216 -71q-61 0 -99 28.5t-56 89.5q-67 -65 -122.5 -92t-119.5 -27q-133 0 -229.5 111.5t-96.5 319.5q0 246 123.5 444.5t305.5 198.5 q72 0 126.5 -33t109.5 -115l18 113h196l-126 -794q-4 -24 -4 -35q0 -18 10.5 -28t30.5 -10q46 0 104 41q86 61 142 174.5t56 275.5q0 265 -152 418.5t-408 153.5q-189 0 -344 -90.5t-238.5 -262t-83.5 -379.5q0 -323 182 -512t470 -189q140 0 270 47t250 140h205 q-82 -97 -156 -152q-110 -81 -254.5 -132.5t-310.5 -51.5q-232 0 -416.5 107.5t-288.5 306t-104 437.5zM492 495q0 -120 51 -186q38 -49 97 -49q65 0 117 54.5t91 218t39 294.5q0 99 -42 149t-100 50q-66 0 -117 -50q-67 -68 -101.5 -214t-34.5 -267z" />
<glyph unicode="A" horiz-adv-x="1598" d="M2 0l553 1471h496l553 -1471h-476l-73 243h-517l-72 -243h-464zM636 561h324l-162 529z" />
<glyph unicode="B" horiz-adv-x="1598" d="M151 0v1471h852q212 0 326 -105.5t114 -260.5q0 -130 -81 -224q-55 -62 -159 -98q159 -39 233.5 -131.5t74.5 -233.5q0 -114 -53 -205t-145 -145q-58 -33 -173 -48q-153 -20 -204 -20h-785zM610 316h232q117 0 165 41.5t48 111.5q0 66 -47.5 105.5t-166.5 39.5h-231v-298 zM610 894h198q106 0 148 36.5t42 106.5q0 64 -42 100t-145 36h-201v-279z" />
<glyph unicode="C" horiz-adv-x="1598" d="M98 738q0 365 194 561.5t549 196.5q278 0 437 -112t236 -345l-401 -90q-21 67 -44 99q-39 52 -94 80t-123 28q-154 0 -237 -125q-62 -92 -62 -290q0 -245 74.5 -335.5t208.5 -90.5q130 0 197 73.5t97 212.5l398 -120q-40 -168 -126 -280.5t-214 -169.5t-326 -57 q-240 0 -392 69.5t-262 245.5t-110 449z" />
<glyph unicode="D" horiz-adv-x="1598" d="M156 0v1471h676q200 0 322.5 -54t203 -155.5t116.5 -236t36 -285.5q0 -235 -53.5 -365t-149 -218t-204.5 -117q-149 -40 -271 -40h-676zM611 334h112q142 0 202 31.5t94.5 110.5t34.5 256q0 233 -76.5 319.5t-252.5 86.5h-114v-804z" />
<glyph unicode="E" horiz-adv-x="1483" d="M149 0v1471h1219v-314h-763v-234h708v-300h-708v-290h785v-333h-1241z" />
<glyph unicode="F" d="M152 0v1471h1124v-316h-667v-257h570v-297h-570v-601h-457z" />
<glyph unicode="G" horiz-adv-x="1711" d="M95 735q0 242 99 420t291 270q149 71 402 71q244 0 365 -44t200.5 -137t119.5 -235l-438 -78q-27 83 -91.5 127t-165.5 44q-149 0 -238 -104t-89 -329q0 -238 90 -340.5t250 -102.5q77 0 146 22t158 75v139h-304v306h702v-627q-201 -138 -356 -187.5t-368 -49.5 q-262 0 -427 89t-255.5 266t-90.5 405z" />
<glyph unicode="H" horiz-adv-x="1711" d="M152 0v1471h455v-515h497v515h457v-1471h-457v595h-497v-595h-455z" />
<glyph unicode="I" horiz-adv-x="799" d="M169 0v1471h455v-1471h-455z" />
<glyph unicode="J" d="M35 497l434 59q1 -97 17.5 -144.5t54.5 -76.5q26 -19 74 -19q76 0 111.5 57t35.5 191v907h456v-800q0 -252 -44.5 -383.5t-179.5 -222.5t-346 -91q-223 0 -345 60.5t-189 176t-79 286.5z" />
<glyph unicode="K" horiz-adv-x="1711" d="M152 0v1471h455v-556l477 556h604l-536 -555l560 -916h-560l-310 605l-235 -246v-359h-455z" />
<glyph unicode="L" d="M150 0v1471h455v-1109h710v-362h-1165z" />
<glyph unicode="M" horiz-adv-x="1939" d="M146 0v1471h598l231 -895l229 895h596v-1471h-371v1122l-288 -1122h-336l-287 1122v-1122h-372z" />
<glyph unicode="N" horiz-adv-x="1711" d="M153 0v1471h425l554 -814v814h429v-1471h-429l-551 808v-808h-428z" />
<glyph unicode="O" horiz-adv-x="1711" d="M93 735q0 360 201 560.5t559 200.5q368 0 566 -197t198 -552q0 -258 -86.5 -423t-250.5 -257t-409 -92q-249 0 -412 79t-264.5 251t-101.5 430zM548 733q0 -223 82.5 -320.5t225.5 -97.5q147 0 227 95.5t80 342.5q0 207 -83.5 303t-227.5 96q-138 0 -221 -97.5 t-83 -321.5z" />
<glyph unicode="P" horiz-adv-x="1483" d="M148 0v1471h756q247 0 370 -117.5t123 -333.5q0 -223 -134 -348.5t-409 -125.5h-249v-546h-457zM605 844h111q132 0 185.5 45.5t53.5 116.5q0 70 -46.5 118t-173.5 48h-130v-328z" />
<glyph unicode="Q" horiz-adv-x="1711" d="M93 731q0 363 200.5 564t559.5 201q367 0 565.5 -196.5t198.5 -563.5q1 -326 -160 -521q86 -60 111 -74q40 -22 106 -52l-127 -255q-95 46 -188 110t-131 96q-150 -65 -377 -65q-335 0 -529 174q-229 207 -229 582zM548 751q0 -241 82 -338.5t226 -97.5q46 0 87 9 q-57 56 -181 104l72 164q60 -11 93.5 -27t131.5 -84q23 -16 50 -34q54 98 54 291q0 223 -82.5 318.5t-228.5 95.5q-135 0 -219.5 -97.5t-84.5 -303.5z" />
<glyph unicode="R" horiz-adv-x="1598" d="M156 0v1471h758q211 0 322.5 -36t179.5 -134t68 -238q0 -123 -52 -212t-143 -143q-59 -36 -160 -59q81 -27 119 -54q25 -18 72.5 -77t63.5 -92l220 -426h-514l-243 450q-46 87 -82 113q-49 34 -112 34h-40v-597h-457zM613 875h192q30 0 120 20q45 9 74 46.5t29 85.5 q0 71 -45.5 109t-169.5 38h-200v-299z" />
<glyph unicode="S" horiz-adv-x="1483" d="M71 487l433 27q14 -105 57 -161q70 -89 200 -89q98 0 150.5 45.5t52.5 106.5q0 57 -50 102t-232 85q-299 67 -427 179q-129 111 -129 284q0 113 66 214t198 158.5t362 57.5q281 0 429.5 -104.5t176.5 -333.5l-429 -26q-17 100 -71.5 145t-150.5 45q-80 0 -120 -33.5 t-40 -81.5q0 -35 33 -63q32 -29 153 -55q297 -64 426.5 -129.5t188 -163t58.5 -217.5q0 -142 -78 -261.5t-219 -181t-354 -61.5q-376 0 -520.5 144.5t-163.5 367.5z" />
<glyph unicode="T" horiz-adv-x="1483" d="M47 1108v363h1382v-363h-464v-1108h-454v1108h-464z" />
<glyph unicode="U" horiz-adv-x="1711" d="M151 594v877h454v-898q0 -121 66.5 -188.5t185.5 -67.5q118 0 184.5 67t66.5 189v898h454v-877q0 -130 -41 -246t-128 -203t-182 -122q-132 -49 -318 -49q-107 0 -234 15t-212.5 59.5t-156 127t-96.5 169.5q-43 141 -43 249z" />
<glyph unicode="V" horiz-adv-x="1598" d="M5 1471h476l331 -1058l326 1058h462l-546 -1471h-493z" />
<glyph unicode="W" horiz-adv-x="2055" d="M-1 1471h432l155 -822l227 822h430l228 -822l156 822h429l-324 -1471h-445l-258 926l-257 -926h-446z" />
<glyph unicode="X" horiz-adv-x="1598" d="M3 0l508 767l-462 704h501l261 -452l253 452h496l-458 -712l501 -759h-511l-290 473l-291 -473h-508z" />
<glyph unicode="Y" horiz-adv-x="1598" d="M2 1471h505l297 -496l297 496h502l-573 -855v-616h-455v616z" />
<glyph unicode="Z" horiz-adv-x="1483" d="M34 0v305l816 852h-737v314h1287v-294l-825 -861h855v-316h-1396z" />
<glyph unicode="[" horiz-adv-x="799" d="M135 -409v1880h618v-317h-244v-1245h244v-318h-618z" />
<glyph unicode="\" horiz-adv-x="570" d="M-6 1496l369 -1520h207l-367 1520h-209z" />
<glyph unicode="]" horiz-adv-x="799" d="M47 -91v-318h618v1880h-618v-317h244v-1245h-244z" />
<glyph unicode="^" horiz-adv-x="1356" d="M125 681l410 815h280l410 -815h-355l-194 492l-195 -492h-356z" />
<glyph unicode="_" horiz-adv-x="1027" d="M-12 -154h1052v-103h-1052v103z" />
<glyph unicode="`" horiz-adv-x="684" d="M1 1496h348l165 -299h-193z" />
<glyph unicode="a" d="M74 282q0 121 71 200q71 78 262 116q230 46 298.5 65t144.5 48q0 76 -31 106t-109 30q-101 0 -151 -32q-39 -26 -63 -95l-391 41q22 103 64 161.5t120 102.5q56 30 154.5 47.5t212.5 17.5q184 0 295.5 -20.5t185.5 -86.5q52 -45 82.5 -127.5t30.5 -158.5v-470 q0 -76 9.5 -118.5t40.5 -108.5h-383q-23 41 -30 62.5t-14 67.5q-80 -77 -160 -110q-108 -44 -251 -44q-191 0 -289.5 88t-98.5 218zM483 312q0 -48 33.5 -78.5t98.5 -30.5q68 0 127 33t83.5 80.5t24.5 124.5v65q-84 -30 -176 -53q-124 -34 -157 -65q-34 -34 -34 -76z" />
<glyph unicode="b" d="M125 0v1471h413v-510q61 65 139 97t172 32q195 0 322 -140t127 -402q0 -175 -58 -308t-160.5 -198.5t-228.5 -65.5q-107 0 -197 46q-67 36 -146 136v-158h-383zM535 536q0 -138 51.5 -199.5t130.5 -61.5q74 0 123.5 60.5t49.5 204.5q0 126 -48.5 185.5t-117.5 59.5 q-84 0 -136.5 -61.5t-52.5 -187.5z" />
<glyph unicode="c" d="M74 528q0 164 56 274q42 80 113 143.5t147 95.5q119 49 305 49q261 0 398 -93.5t192 -272.5l-384 -52q-18 68 -65.5 103t-127.5 35q-102 0 -164.5 -73t-62.5 -220q0 -131 62 -199.5t159 -68.5q80 0 134.5 41t81.5 126l388 -44q-32 -121 -105 -209.5t-187 -138t-289 -49.5 q-170 0 -283 31.5t-194 102.5t-127.5 166t-46.5 253z" />
<glyph unicode="d" d="M72 544q0 265 127 405.5t323 140.5q95 0 173 -32t138 -97v510h413v-1471h-383v158q-80 -101 -147 -136q-88 -46 -196 -46q-218 0 -333 165.5t-115 402.5zM481 527q0 -131 49.5 -191.5t122.5 -60.5q79 0 131 61t52 200q0 126 -53 187.5t-135 61.5q-71 0 -119 -59.5 t-48 -198.5z" />
<glyph unicode="e" d="M72 531q0 250 160 404.5t442 154.5q229 0 361.5 -69t201.5 -201t69 -342v-46h-818q11 -99 53 -147q59 -69 154 -69q61 0 115 30q33 19 71 67l402 -37q-92 -161 -222.5 -230.5t-374.5 -69.5q-211 0 -332.5 60t-201.5 189.5t-80 305.5zM489 627h402q-12 119 -63.5 170 t-136.5 51q-97 0 -155 -77q-37 -48 -47 -144z" />
<glyph unicode="f" horiz-adv-x="799" d="M16 767v299h153v48q0 65 13.5 143.5t52.5 128t109 80t204 30.5q107 0 312 -25l-45 -246q-68 11 -112 11h-7q-55 0 -79 -18.5t-34 -58.5q-5 -22 -5 -93h195v-299h-195v-767h-409v767h-153z" />
<glyph unicode="g" d="M74 580q0 249 120 379.5t315 130.5q124 0 205 -42.5t151 -139.5v158h383v-1007l1 -47q0 -100 -43 -191t-113.5 -147t-179.5 -81.5t-250 -25.5q-320 0 -440.5 96.5t-120.5 258.5q0 20 2 54l397 -45q15 -55 46 -77q45 -30 114 -30q88 0 131.5 47t43.5 164v161 q-60 -71 -121 -103q-94 -50 -203 -50q-214 0 -345 187q-93 132 -93 350zM481 549q0 -116 49 -171.5t130 -55.5q76 0 127.5 58t51.5 174t-54 178t-133 62q-78 0 -124.5 -57t-46.5 -188z" />
<glyph unicode="h" d="M123 0v1471h409v-542q83 86 165.5 123.5t194.5 37.5q167 0 262.5 -101.5t95.5 -311.5v-677h-410v586q0 100 -37 142t-105 42q-74 0 -120 -56.5t-46 -201.5v-512h-409z" />
<glyph unicode="i" horiz-adv-x="684" d="M139 0v1066h408v-1066h-408zM139 1193v278h408v-278h-408z" />
<glyph unicode="j" horiz-adv-x="684" d="M-100 -397l61 297q49 -10 72 -10q52 0 79.5 35.5t27.5 141.5v999h409v-1034q0 -197 -28.5 -279.5t-106 -134t-220.5 -51.5q-119 0 -294 36zM140 1190v281h409v-281h-409z" />
<glyph unicode="k" d="M123 0v1471h418v-759l305 354h503l-383 -374l405 -692h-461l-216 427l-153 -150v-277h-418z" />
<glyph unicode="l" horiz-adv-x="684" d="M138 0v1471h409v-1471h-409z" />
<glyph unicode="m" horiz-adv-x="2055" d="M126 0v1066h382v-156q82 98 166 139t202 41q128 0 202 -45t121 -135q97 105 176 142.5t195 37.5q172 0 268.5 -102t96.5 -319v-669h-410v607q0 72 -28 107q-41 56 -102 56q-72 0 -116.5 -52.5t-44.5 -167.5v-550h-409v587q0 70 -8 96q-13 40 -45.5 64.5t-75.5 24.5 q-70 0 -115 -53.5t-45 -174.5v-544h-410z" />
<glyph unicode="n" d="M123 0v1066h381v-174q85 107 172.5 152.5t212.5 45.5q170 0 265.5 -101t95.5 -312v-677h-410v586q0 100 -37 142t-105 42q-74 0 -120 -56.5t-46 -201.5v-512h-409z" />
<glyph unicode="o" d="M74 530q0 244 164 402t445 158q320 0 483 -186q132 -149 132 -368q0 -246 -163.5 -403t-450.5 -157q-257 0 -416 130q-194 162 -194 424zM483 531q0 -143 57.5 -211t145.5 -68t144.5 67t56.5 216q0 139 -57 206.5t-142 67.5q-89 0 -147 -69t-58 -209z" />
<glyph unicode="p" d="M125 -405v1471h383v-158q79 99 145 135q89 47 198 47q214 0 330.5 -164t116.5 -404q0 -266 -127 -406t-322 -140q-94 0 -172 32t-139 95v-508h-413zM535 530q0 -127 53 -188t135 -61q71 0 119 58.5t48 199.5q0 129 -50 190t-123 61q-78 0 -130 -61.5t-52 -198.5z" />
<glyph unicode="q" d="M72 517q0 174 58.5 307.5t161.5 199.5t228 66q107 0 197 -47q67 -36 146 -135v158h383v-1471h-413v508q-60 -63 -138 -95t-173 -32q-195 0 -322.5 140t-127.5 401zM481 526q0 -128 48.5 -186.5t118.5 -58.5q83 0 135.5 61t52.5 188q0 137 -51.5 198.5t-131.5 61.5 q-73 0 -122.5 -61t-49.5 -203z" />
<glyph unicode="r" horiz-adv-x="911" d="M127 0v1066h383v-175q55 113 114 156t145 43q90 0 197 -57l-126 -290q-72 30 -114 30q-81 0 -125 -66q-63 -94 -63 -350v-357h-411z" />
<glyph unicode="s" horiz-adv-x="1255" d="M51 295l406 38q25 -72 70 -103t120 -31q83 0 128 35q35 26 35 65q0 44 -46 69q-33 17 -176 42q-213 37 -295.5 68.5t-139 107t-56.5 171.5q0 105 61 181.5t168.5 114t287.5 37.5q191 0 281.5 -29.5t151.5 -90.5t101 -165l-388 -38q-15 51 -50 75q-48 32 -116 32 q-69 0 -100.5 -24.5t-31.5 -59.5q0 -39 40 -59q40 -21 174 -37q204 -23 303.5 -64t152 -117t52.5 -168t-55.5 -179.5t-175.5 -139t-327 -51.5q-292 0 -416 83.5t-159 236.5z" />
<glyph unicode="t" horiz-adv-x="911" d="M56 768v298h151v195l409 210v-405h225v-298h-225v-378q0 -69 13 -91q20 -34 70 -34q45 0 127 26l30 -282q-151 -33 -283 -33q-153 0 -225 39t-106.5 119t-34.5 258v376h-151z" />
<glyph unicode="u" d="M120 388v678h410v-586q0 -101 37 -143t104 -42q74 0 120.5 56t46.5 202v513h409v-1066h-382v172q-85 -106 -172 -151t-213 -45q-169 0 -264.5 100.5t-95.5 311.5z" />
<glyph unicode="v" horiz-adv-x="1255" d="M2 1066h425l207 -675l214 675h412l-452 -1066h-363z" />
<glyph unicode="w" horiz-adv-x="1939" d="M3 1066h395l172 -672l217 672h368l225 -672l171 672h393l-393 -1066h-363l-215 641l-209 -641h-366z" />
<glyph unicode="x" d="M11 0l387 558l-367 508h485l170 -297l196 297h451l-364 -508l390 -558h-477l-196 343l-232 -343h-443z" />
<glyph unicode="y" horiz-adv-x="1255" d="M5 1066h432l219 -710l204 710h402l-422 -1140q-72 -194 -148 -262q-106 -97 -324 -97q-88 0 -272 24l-33 286q88 -28 197 -28q72 0 116.5 33t76.5 118z" />
<glyph unicode="z" horiz-adv-x="1142" d="M37 0v265l510 522h-470v279h989v-239l-538 -548h571v-279h-1062z" />
<glyph unicode="{" horiz-adv-x="799" d="M26 358v345q77 0 116 24t59 73.5t20 167.5v35q-1 23 -1 46q0 177 29.5 256.5t81.5 121.5q39 32 107 48q89 21 203 21h136v-329h-45q-64 0 -95.5 -26.5t-44.5 -81.5q-7 -30 -8 -165t-28 -212q-20 -60 -57 -96q-28 -27 -93 -55q67 -31 100 -64.5t56 -102.5t23 -219 q0 -136 14 -177.5t46.5 -58t131.5 -16.5v-326h-127q-195 0 -277.5 43t-117.5 124.5t-35 245.5q0 36 2 72q1 22 1 46q0 116 -21 165t-61 71t-115 24z" />
<glyph unicode="|" horiz-adv-x="570" d="M161 -405v1876h255v-1876h-255z" />
<glyph unicode="}" horiz-adv-x="799" d="M23 -107v-326h127q195 0 277.5 43t117.5 124.5t35 245.5q0 36 -2 72q-1 22 -1 46q0 116 21 165t61 71t115 24v345q-77 0 -116 24t-59 73.5t-20 167.5v35q1 23 1 46q0 177 -29.5 256.5t-81.5 121.5q-39 32 -107 48q-89 21 -203 21h-136v-329h45q64 0 95.5 -26.5 t44.5 -81.5q7 -30 8 -165t28 -212q20 -60 57 -96q28 -27 93 -55q-67 -31 -100 -64.5t-56 -102.5t-23 -219q0 -136 -14 -177.5t-46.5 -58t-131.5 -16.5z" />
<glyph unicode="~" horiz-adv-x="1356" d="M99 494v330q94 83 175 118.5t178 35.5q49 0 103 -16t159 -67t149 -64t83 -13q135 0 304 158v-328q-115 -92 -186.5 -123t-147.5 -31q-58 0 -117 17t-184 80t-197 63q-154 0 -319 -160z" />
<glyph unicode="&#xa1;" horiz-adv-x="684" d="M124 -70v-335h437v335l-84 673h-270zM140 706h407v360h-407v-360z" />
<glyph unicode="&#xa2;" d="M74 531q0 254 161 410.5t421 156.5q39 0 150 -8l129 361l130 -47l-121 -338q102 -33 167.5 -82.5t109.5 -115.5q32 -49 66 -143l-366 -50q-14 47 -27 67t-44 49l-195 -557q36 -5 57 -5q78 0 138 47.5t85 137.5l371 -42q-21 -99 -59 -158q-71 -109 -198.5 -177.5 t-301.5 -68.5q-45 0 -180 8l-129 -368l-132 47l122 353q-162 51 -258 185t-96 338zM463 508q0 -77 14 -119.5t54 -88.5l182 531q-13 1 -20 1q-88 0 -159 -72t-71 -252z" />
<glyph unicode="&#xa3;" d="M113 260q211 151 211 303q0 8 -2 45h-209v240h150q-38 132 -43 154q-6 32 -6 79q0 125 66.5 225t175.5 145t294 45q172 0 273 -38.5t170.5 -128.5t96.5 -217l-384 -60q-29 107 -66.5 142t-85.5 35q-59 0 -95 -38t-36 -108q0 -37 7 -71.5t48 -163.5h304v-240h-269 q-4 -85 -30 -153q-21 -52 -71 -109q56 14 97 13q51 0 133 -20q112 -26 180 -26q55 0 95.5 9.5t107.5 39.5l136 -299q-100 -50 -175 -69t-161 -19q-95 0 -216 33q-160 44 -198 51t-82 7q-130 0 -286 -91z" />
<glyph unicode="&#xa4;" horiz-adv-x="1356" d="M98 214l142 140q-27 52 -40.5 106.5t-13.5 110.5q0 57 13.5 113.5t40.5 113.5l-142 143l208 210l145 -143q57 29 112.5 43.5t109.5 14.5q55 0 111 -14t113 -44l141 143l212 -210l-142 -143q26 -55 39 -109.5t13 -109.5q0 -54 -13 -110t-39 -115l142 -140l-212 -214 l-141 144q-61 -27 -117.5 -41t-109.5 -14q-52 0 -107 14t-112 41l-138 -144zM482 576q0 -79 56 -135.5t135 -56.5q81 0 137 56.5t56 135.5q0 81 -56 137t-137 56q-79 0 -135 -56.5t-56 -136.5z" />
<glyph unicode="&#xa5;" d="M-2 1471h459l229 -500l227 500h460l-350 -634h298v-222h-423v-121h423v-225h-423v-269h-417v269h-430v225h430v121h-430v222h307z" />
<glyph unicode="&#xa6;" horiz-adv-x="570" d="M161 374h255v-779h-255v779zM161 692v779h255v-779h-255z" />
<glyph unicode="&#xa7;" d="M65 595q0 86 44.5 159t153.5 149q-51 56 -74 110.5t-23 121.5q0 86 40.5 158t105.5 115t132 62q92 26 235 26q192 0 287 -34.5t155 -106.5t94 -192l-383 -44q-19 57 -52.5 81.5t-90.5 24.5q-67 0 -98 -26.5t-31 -66.5q0 -34 28 -60q50 -46 235 -114q264 -96 367 -188 q103 -93 103 -244q0 -88 -39.5 -161t-126.5 -148q53 -59 78.5 -118t25.5 -135q0 -105 -53.5 -196t-169 -146t-310.5 -55q-124 0 -221 21t-159.5 58.5t-103.5 86t-61 93.5t-35 121l377 39q36 -74 82 -107.5t113 -33.5q70 0 104.5 32t34.5 79q0 40 -41 81q-57 57 -306.5 155.5 t-333 196t-83.5 206.5zM395 655q0 -26 18 -45q28 -32 138 -82l386 -174q45 68 45 110q0 33 -26 59q-40 38 -232.5 118t-276.5 126q-52 -69 -52 -112z" />
<glyph unicode="&#xa8;" horiz-adv-x="684" d="M-2 1200v251h261v-251h-261zM423 1200v251h264v-251h-264z" />
<glyph unicode="&#xa9;" horiz-adv-x="1643" d="M58 731q0 204 103 382.5t280.5 280.5t382.5 102t383 -102t281 -280.5t103 -382.5q0 -206 -103 -383.5t-281 -280t-383 -102.5t-382.5 102.5t-280.5 280t-103 383.5zM206 731q0 -256 181 -437.5t437 -181.5q255 0 436.5 181.5t181.5 437.5q0 255 -181 436.5t-437 181.5 t-437 -181.5t-181 -436.5zM412 733q0 185 119 306t299 121q146 0 245 -77.5t125 -199.5l-197 -30q-19 81 -66.5 120.5t-115.5 39.5q-79 0 -132 -66.5t-53 -209.5t36 -204q54 -89 151 -89q61 0 109.5 45.5t70.5 146.5l206 -49q-38 -121 -105 -187q-105 -101 -275 -101 q-185 0 -301 119t-116 315z" />
<glyph unicode="&#xaa;" horiz-adv-x="821" d="M33 962q0 89 53 142q52 53 225 84q105 18 191 49q0 57 -22 78.5t-80 21.5q-53 0 -77.5 -17.5t-37.5 -61.5l-222 43q19 71 54 112t91.5 62t167.5 21q213 0 284 -56q69 -57 69 -182v-338q0 -62 6.5 -90.5t28.5 -65.5h-219q-15 31 -24 67q-46 -43 -90 -60q-63 -24 -145 -24 q-125 0 -189 59t-64 156zM267 980q0 -36 26 -60t71 -24q63 0 100.5 40.5t37.5 124.5v39q-58 -20 -123 -33t-88 -35q-24 -22 -24 -52z" />
<glyph unicode="&#xab;" d="M96 535l320 465h313l-278 -465l278 -464h-313zM616 535l319 465h315l-279 -465l279 -464h-315z" />
<glyph unicode="&#xac;" horiz-adv-x="1356" d="M126 811v326h1096v-820h-327v494h-769z" />
<glyph unicode="&#xad;" horiz-adv-x="684" d="M45 378v316h594v-316h-594z" />
<glyph unicode="&#xae;" horiz-adv-x="1643" d="M58 731q0 204 103 382.5t280.5 280.5t382.5 102t383 -102t281 -280.5t103 -382.5q0 -206 -103 -383.5t-281 -280t-383 -102.5t-382.5 102.5t-280.5 280t-103 383.5zM206 731q0 -256 181 -437.5t437 -181.5q255 0 436.5 181.5t181.5 437.5q0 255 -181 436.5t-437 181.5 t-437 -181.5t-181 -436.5zM477 321v819h366q155 0 225 -62.5t70 -168.5q0 -82 -53.5 -142t-167.5 -88q47 -18 69 -38q31 -28 66 -83q2 -4 132 -237h-241q-117 234 -157 279.5t-80 45.5q-9 0 -25 -3v-322h-204zM681 793h88q88 0 124 28.5t36 73.5t-34.5 74t-117.5 29h-96 v-205z" />
<glyph unicode="&#xaf;" horiz-adv-x="1027" d="M-12 1605v103h1052v-103h-1052z" />
<glyph unicode="&#xb0;" horiz-adv-x="821" d="M120 1210q0 120 84 203.5t202 83.5q120 0 204 -83.5t84 -203.5q0 -118 -84 -202.5t-204 -84.5q-118 0 -202 84.5t-84 202.5zM304 1211q0 -42 30 -71.5t72 -29.5t72 29.5t30 71.5t-30 72.5t-72 30.5t-72 -30.5t-30 -72.5z" />
<glyph unicode="&#xb1;" horiz-adv-x="1356" d="M127 0v308h1095v-308h-1095zM127 760v316h385v374h324v-374h386v-316h-386v-358h-324v358h-385z" />
<glyph unicode="&#xb2;" horiz-adv-x="821" d="M22 744q25 91 81 156t248 194q112 74 142 110q29 37 29 66t-22.5 48.5t-69.5 19.5q-49 0 -82.5 -27t-48.5 -86l-247 21q18 80 48 120q44 59 128 94.5t213 35.5q181 0 265.5 -66t84.5 -158q0 -70 -42 -128q-43 -59 -143 -117.5t-163 -99.5h351v-183h-772z" />
<glyph unicode="&#xb3;" horiz-adv-x="821" d="M31 936l255 29q16 -48 45 -69t78 -21q56 0 87.5 27.5t31.5 65.5q0 51 -56 80q-32 16 -150 18l28 141q87 0 117 22t30 55q0 26 -20.5 44t-60.5 18q-42 0 -75 -23q-24 -18 -39 -61l-259 40q49 95 122 138q96 56 256 56q181 0 273 -67q66 -48 66 -125q0 -53 -36 -98 q-25 -30 -91 -62q80 -26 118.5 -77t38.5 -119q0 -94 -74 -149q-99 -76 -303 -75q-192 0 -294 78q-60 45 -88 134z" />
<glyph unicode="&#xb4;" horiz-adv-x="684" d="M164 1196l168 300h352l-325 -300h-195z" />
<glyph unicode="&#xb5;" d="M121 -403v1469h409v-536q0 -114 30 -157q44 -65 127 -65q78 0 116 58.5t38 174.5v525h408v-1066h-384v84q-33 -56 -64 -76q-49 -32 -102 -32q-48 0 -101 29q-35 19 -68 72v-480h-409z" />
<glyph unicode="&#xb6;" horiz-adv-x="1746" d="M135 1054q0 201 128.5 309t383.5 108h976v-318h-132v-1562h-298v1562h-167v-1562h-298v1026h-70q-203 0 -305 49.5t-160 153.5t-58 234z" />
<glyph unicode="&#xb7;" horiz-adv-x="685" d="M639 531v409h437v-409h-437z" />
<glyph unicode="&#xb8;" horiz-adv-x="684" d="M18 -283q104 -20 222 -20q86 0 117 23t31 60q0 29 -25.5 50.5t-78.5 21.5q-71 0 -167 -18l30 119q94 23 176 23q171 0 236.5 -58.5t65.5 -137.5q0 -48 -29.5 -99t-105.5 -82.5t-203 -31.5q-114 0 -269 27v123z" />
<glyph unicode="&#xb9;" horiz-adv-x="821" d="M142 1111v208q184 45 289 177h198v-752h-261v449q-56 -33 -101.5 -49.5t-124.5 -32.5z" />
<glyph unicode="&#xba;" horiz-adv-x="821" d="M23 1121q0 96 43 185.5t133.5 139.5t215.5 50q172 0 274 -103t102 -275q0 -166 -103.5 -269t-271.5 -103q-134 0 -224.5 54.5t-129.5 145t-39 175.5zM272 1121q0 -108 43 -161q33 -40 98 -40q57 0 94 46t37 155q0 110 -38 156.5t-97 46.5q-62 0 -99.5 -46.5t-37.5 -156.5 z" />
<glyph unicode="&#xbb;" d="M121 71h315l319 464l-319 465h-315l279 -465zM642 71h313l320 464l-320 465h-313l278 -465z" />
<glyph unicode="&#xbc;" horiz-adv-x="2055" d="M158 1111v208q184 45 289 177h198v-752h-261v449q-56 -33 -101.5 -49.5t-124.5 -32.5zM482 -53l923 1549h215l-925 -1549h-213zM1244 71v189l420 463h214v-486h100v-166h-100v-121h-224v121h-410zM1449 237h205v220z" />
<glyph unicode="&#xbd;" horiz-adv-x="2055" d="M158 1111v208q184 45 289 177h198v-752h-261v449q-56 -33 -101.5 -49.5t-124.5 -32.5zM451 -53l923 1549h215l-925 -1549h-213zM1225 -29q25 91 81 156t248 194q112 74 142 110q29 37 29 66t-22.5 48.5t-69.5 19.5q-49 0 -82.5 -27t-48.5 -86l-247 21q18 80 48 120 q44 59 128 94.5t213 35.5q181 0 265.5 -66t84.5 -158q0 -70 -42 -128q-43 -59 -143 -117.5t-163 -99.5h351v-183h-772z" />
<glyph unicode="&#xbe;" horiz-adv-x="2055" d="M70 936l255 29q16 -48 45 -69t78 -21q56 0 87.5 27.5t31.5 65.5q0 51 -56 80q-32 16 -150 18l28 141q87 0 117 22t30 55q0 26 -20.5 44t-60.5 18q-42 0 -75 -23q-24 -18 -39 -61l-259 40q49 95 122 138q96 56 256 56q181 0 273 -67q66 -48 66 -125q0 -53 -36 -98 q-25 -30 -91 -62q80 -26 118.5 -77t38.5 -119q0 -94 -74 -149q-99 -76 -303 -75q-192 0 -294 78q-60 45 -88 134zM507 -53l923 1549h215l-925 -1549h-213zM1244 71v189l420 463h214v-486h100v-166h-100v-121h-224v121h-410zM1449 237h205v220z" />
<glyph unicode="&#xbf;" horiz-adv-x="1255" d="M73 -10q0 86 47 165t193 194q101 80 127.5 128.5t26.5 126.5h382v-38q0 -97 -22.5 -157.5t-66 -111t-195.5 -176.5q-82 -66 -82 -122q0 -55 32.5 -85.5t99.5 -30.5q71 0 117.5 47t59.5 165l389 -49q-20 -214 -155.5 -345t-416.5 -131q-219 0 -354 91q-182 124 -182 329z M453 706v360h409v-360h-409z" />
<glyph unicode="&#xc0;" horiz-adv-x="1598" d="M2 0l553 1471h496l553 -1471h-476l-73 243h-517l-72 -243h-464zM459 1860h348l165 -299h-193zM636 561h324l-162 529z" />
<glyph unicode="&#xc1;" horiz-adv-x="1598" d="M2 0l553 1471h496l553 -1471h-476l-73 243h-517l-72 -243h-464zM622 1560l168 300h352l-325 -300h-195zM636 561h324l-162 529z" />
<glyph unicode="&#xc2;" horiz-adv-x="1598" d="M2 0l553 1471h496l553 -1471h-476l-73 243h-517l-72 -243h-464zM430 1560l230 287h290l222 -287h-248l-123 154l-122 -154h-249zM636 561h324l-162 529z" />
<glyph unicode="&#xc3;" horiz-adv-x="1598" d="M2 0l553 1471h496l553 -1471h-476l-73 243h-517l-72 -243h-464zM438 1601q0 108 59 171t141 63q35 0 66 -8t114.5 -43t122.5 -35q27 0 43.5 18.5t18.5 67.5h159q1 -26 1 -45q0 -111 -56.5 -172.5t-144.5 -61.5q-64 0 -195 54q-79 32 -109 31q-29 0 -45 -18t-17 -64h-157 q-1 24 -1 42zM636 561h324l-162 529z" />
<glyph unicode="&#xc4;" horiz-adv-x="1598" d="M2 0l553 1471h496l553 -1471h-476l-73 243h-517l-72 -243h-464zM456 1564v251h261v-251h-261zM636 561h324l-162 529zM881 1564v251h264v-251h-264z" />
<glyph unicode="&#xc5;" horiz-adv-x="1598" d="M2 0l553 1471h34q-32 56 -32 121q0 100 70.5 171.5t170.5 71.5t171 -71t71 -172q0 -65 -34 -121h45l553 -1471h-476l-77 243h-508l-77 -243h-464zM648 579h300l-150 487zM694 1593q0 -44 30.5 -74t73.5 -30q42 0 72 30t30 73q0 44 -30 74t-72 30q-43 0 -73.5 -30 t-30.5 -73z" />
<glyph unicode="&#xc6;" horiz-adv-x="2055" d="M-76 0l634 1471h1405v-314h-620v-234h564v-300h-564v-290h639v-333h-1067v264h-436l-98 -264h-457zM602 599h313v574h-101z" />
<glyph unicode="&#xc7;" horiz-adv-x="1598" d="M98 738q0 365 194 561.5t549 196.5q278 0 437 -112t236 -345l-401 -90q-21 67 -44 99q-39 52 -94 80t-123 28q-154 0 -237 -125q-62 -92 -62 -290q0 -245 74.5 -335.5t208.5 -90.5q130 0 197 73.5t97 212.5l398 -120q-40 -168 -126 -280.5t-214 -169.5t-326 -57 q-240 0 -392 69.5t-262 245.5t-110 449zM476 -283q104 -20 222 -20q86 0 117 23t31 60q0 29 -25.5 50.5t-78.5 21.5q-71 0 -167 -18l30 119q94 23 176 23q171 0 236.5 -58.5t65.5 -137.5q0 -48 -29.5 -99t-105.5 -82.5t-203 -31.5q-114 0 -269 27v123z" />
<glyph unicode="&#xc8;" horiz-adv-x="1483" d="M149 0v1471h1219v-314h-763v-234h708v-300h-708v-290h785v-333h-1241zM401 1860h348l165 -299h-193z" />
<glyph unicode="&#xc9;" horiz-adv-x="1483" d="M149 0v1471h1219v-314h-763v-234h708v-300h-708v-290h785v-333h-1241zM564 1560l168 300h352l-325 -300h-195z" />
<glyph unicode="&#xca;" horiz-adv-x="1483" d="M149 0v1471h1219v-314h-763v-234h708v-300h-708v-290h785v-333h-1241zM372 1560l230 287h290l222 -287h-248l-123 154l-122 -154h-249z" />
<glyph unicode="&#xcb;" horiz-adv-x="1483" d="M149 0v1471h1219v-314h-763v-234h708v-300h-708v-290h785v-333h-1241zM398 1564v251h261v-251h-261zM823 1564v251h264v-251h-264z" />
<glyph unicode="&#xcc;" horiz-adv-x="799" d="M59 1860h348l165 -299h-193zM169 0v1471h455v-1471h-455z" />
<glyph unicode="&#xcd;" horiz-adv-x="799" d="M169 0v1471h455v-1471h-455zM222 1560l168 300h352l-325 -300h-195z" />
<glyph unicode="&#xce;" horiz-adv-x="799" d="M30 1560l230 287h290l222 -287h-248l-123 154l-122 -154h-249zM169 0v1471h455v-1471h-455z" />
<glyph unicode="&#xcf;" horiz-adv-x="799" d="M56 1564v251h261v-251h-261zM169 0v1471h455v-1471h-455zM481 1564v251h264v-251h-264z" />
<glyph unicode="&#xd0;" horiz-adv-x="1598" d="M2 624v222h154v625h676q200 0 322.5 -54t203 -155t116 -235.5t35.5 -285.5q0 -242 -55 -371.5t-149.5 -215.5t-204.5 -115q-147 -39 -268 -39h-676v624h-154zM611 334h112q142 0 202 31.5t94.5 110.5t34.5 256q0 233 -77 319.5t-253 86.5h-113v-292h221v-222h-221v-290z " />
<glyph unicode="&#xd1;" horiz-adv-x="1711" d="M153 0v1471h425l554 -814v814h429v-1471h-429l-551 808v-808h-428zM494 1601q0 108 59 171t141 63q35 0 66 -8t114.5 -43t122.5 -35q27 0 43.5 18.5t18.5 67.5h159q1 -26 1 -45q0 -111 -56.5 -172.5t-144.5 -61.5q-64 0 -195 54q-79 32 -109 31q-29 0 -45 -18t-17 -64 h-157q-1 24 -1 42z" />
<glyph unicode="&#xd2;" horiz-adv-x="1711" d="M93 735q0 360 201 560.5t559 200.5q368 0 566 -197t198 -552q0 -258 -86.5 -423t-250.5 -257t-409 -92q-249 0 -412 79t-264.5 251t-101.5 430zM515 1860h348l165 -299h-193zM548 733q0 -223 82.5 -320.5t225.5 -97.5q147 0 227 95.5t80 342.5q0 207 -83.5 303t-227.5 96 q-138 0 -221 -97.5t-83 -321.5z" />
<glyph unicode="&#xd3;" horiz-adv-x="1711" d="M93 735q0 360 201 560.5t559 200.5q368 0 566 -197t198 -552q0 -258 -86.5 -423t-250.5 -257t-409 -92q-249 0 -412 79t-264.5 251t-101.5 430zM548 733q0 -223 82.5 -320.5t225.5 -97.5q147 0 227 95.5t80 342.5q0 207 -83.5 303t-227.5 96q-138 0 -221 -97.5 t-83 -321.5zM678 1560l168 300h352l-325 -300h-195z" />
<glyph unicode="&#xd4;" horiz-adv-x="1711" d="M93 735q0 360 201 560.5t559 200.5q368 0 566 -197t198 -552q0 -258 -86.5 -423t-250.5 -257t-409 -92q-249 0 -412 79t-264.5 251t-101.5 430zM486 1560l230 287h290l222 -287h-248l-123 154l-122 -154h-249zM548 733q0 -223 82.5 -320.5t225.5 -97.5q147 0 227 95.5 t80 342.5q0 207 -83.5 303t-227.5 96q-138 0 -221 -97.5t-83 -321.5z" />
<glyph unicode="&#xd5;" horiz-adv-x="1711" d="M93 735q0 360 201 560.5t559 200.5q368 0 566 -197t198 -552q0 -258 -86.5 -423t-250.5 -257t-409 -92q-249 0 -412 79t-264.5 251t-101.5 430zM494 1601q0 108 59 171t141 63q35 0 66 -8t114.5 -43t122.5 -35q27 0 43.5 18.5t18.5 67.5h159q1 -26 1 -45 q0 -111 -56.5 -172.5t-144.5 -61.5q-64 0 -195 54q-79 32 -109 31q-29 0 -45 -18t-17 -64h-157q-1 24 -1 42zM548 733q0 -223 82.5 -320.5t225.5 -97.5q147 0 227 95.5t80 342.5q0 207 -83.5 303t-227.5 96q-138 0 -221 -97.5t-83 -321.5z" />
<glyph unicode="&#xd6;" horiz-adv-x="1711" d="M93 735q0 360 201 560.5t559 200.5q368 0 566 -197t198 -552q0 -258 -86.5 -423t-250.5 -257t-409 -92q-249 0 -412 79t-264.5 251t-101.5 430zM512 1564v251h261v-251h-261zM548 733q0 -223 82.5 -320.5t225.5 -97.5q147 0 227 95.5t80 342.5q0 207 -83.5 303t-227.5 96 q-138 0 -221 -97.5t-83 -321.5zM937 1564v251h264v-251h-264z" />
<glyph unicode="&#xd7;" horiz-adv-x="1356" d="M125 416l319 320l-319 317l231 231l319 -316l316 316l234 -231l-319 -317l319 -320l-234 -229l-316 320l-319 -320z" />
<glyph unicode="&#xd8;" horiz-adv-x="1711" d="M35 107l177 169q-120 186 -120 456q0 362 200.5 563t556.5 201q316 0 502 -139l174 164l152 -161l-174 -165q54 -80 84 -202t30 -256q0 -257 -93 -423.5t-256 -252.5t-411 -86q-176 0 -316 45q-90 29 -179 96l-175 -168zM547 740q0 -68 10 -137l501 476q-76 73 -207 73 q-138 0 -221 -97t-83 -315zM651 389q74 -74 204 -74q146 0 226.5 94.5t80.5 326.5q0 65 -8 128z" />
<glyph unicode="&#xd9;" horiz-adv-x="1711" d="M151 594v877h454v-898q0 -121 66.5 -188.5t185.5 -67.5q118 0 184.5 67t66.5 189v898h454v-877q0 -130 -41 -246t-128 -203t-182 -122q-132 -49 -318 -49q-107 0 -234 15t-212.5 59.5t-156 127t-96.5 169.5q-43 141 -43 249zM515 1860h348l165 -299h-193z" />
<glyph unicode="&#xda;" horiz-adv-x="1711" d="M151 594v877h454v-898q0 -121 66.5 -188.5t185.5 -67.5q118 0 184.5 67t66.5 189v898h454v-877q0 -130 -41 -246t-128 -203t-182 -122q-132 -49 -318 -49q-107 0 -234 15t-212.5 59.5t-156 127t-96.5 169.5q-43 141 -43 249zM678 1560l168 300h352l-325 -300h-195z" />
<glyph unicode="&#xdb;" horiz-adv-x="1711" d="M151 594v877h454v-898q0 -121 66.5 -188.5t185.5 -67.5q118 0 184.5 67t66.5 189v898h454v-877q0 -130 -41 -246t-128 -203t-182 -122q-132 -49 -318 -49q-107 0 -234 15t-212.5 59.5t-156 127t-96.5 169.5q-43 141 -43 249zM486 1560l230 287h290l222 -287h-248 l-123 154l-122 -154h-249z" />
<glyph unicode="&#xdc;" horiz-adv-x="1711" d="M151 594v877h454v-898q0 -121 66.5 -188.5t185.5 -67.5q118 0 184.5 67t66.5 189v898h454v-877q0 -130 -41 -246t-128 -203t-182 -122q-132 -49 -318 -49q-107 0 -234 15t-212.5 59.5t-156 127t-96.5 169.5q-43 141 -43 249zM512 1564v251h261v-251h-261zM937 1564v251 h264v-251h-264z" />
<glyph unicode="&#xdd;" horiz-adv-x="1598" d="M2 1471h505l297 -496l297 496h502l-573 -855v-616h-455v616zM622 1560l168 300h352l-325 -300h-195z" />
<glyph unicode="&#xde;" horiz-adv-x="1483" d="M148 0v1471h457v-262l299 -1q247 0 370 -117t123 -334q0 -222 -134 -347.5t-409 -125.5h-249v-284h-457zM605 582h111q132 0 185.5 45.5t53.5 117.5q0 68 -46.5 116.5t-173.5 48.5h-130v-328z" />
<glyph unicode="&#xdf;" d="M120 0v1021q0 129 52 242t172 173t318 60q244 0 351.5 -86.5t107.5 -212.5q0 -82 -58.5 -199.5t-58.5 -153.5q0 -27 12.5 -51.5t57.5 -64.5q130 -120 186 -234q38 -80 38 -179q0 -147 -99 -243t-266 -96q-122 0 -213 42q-67 32 -132 108l234 139q35 -44 69 -44 q36 0 59 23t23 57q0 30 -28 71.5t-180 188.5q-79 76 -110 135q-20 39 -20 87q0 59 59.5 176t59.5 176q0 45 -31 74.5t-81 29.5q-57 0 -94.5 -46t-37.5 -164v-1029h-390z" />
<glyph unicode="&#xe0;" d="M74 282q0 121 71 200q71 78 262 116q230 46 298.5 65t144.5 48q0 76 -31 106t-109 30q-101 0 -151 -32q-39 -26 -63 -95l-391 41q22 103 64 161.5t120 102.5q56 30 154.5 47.5t212.5 17.5q184 0 295.5 -20.5t185.5 -86.5q52 -45 82.5 -127.5t30.5 -158.5v-470 q0 -76 9.5 -118.5t40.5 -108.5h-383q-23 41 -30 62.5t-14 67.5q-80 -77 -160 -110q-108 -44 -251 -44q-191 0 -289.5 88t-98.5 218zM344 1496h348l165 -299h-193zM483 312q0 -48 33.5 -78.5t98.5 -30.5q68 0 127 33t83.5 80.5t24.5 124.5v65q-84 -30 -176 -53 q-124 -34 -157 -65q-34 -34 -34 -76z" />
<glyph unicode="&#xe1;" d="M74 282q0 121 71 200q71 78 262 116q230 46 298.5 65t144.5 48q0 76 -31 106t-109 30q-101 0 -151 -32q-39 -26 -63 -95l-391 41q22 103 64 161.5t120 102.5q56 30 154.5 47.5t212.5 17.5q184 0 295.5 -20.5t185.5 -86.5q52 -45 82.5 -127.5t30.5 -158.5v-470 q0 -76 9.5 -118.5t40.5 -108.5h-383q-23 41 -30 62.5t-14 67.5q-80 -77 -160 -110q-108 -44 -251 -44q-191 0 -289.5 88t-98.5 218zM483 312q0 -48 33.5 -78.5t98.5 -30.5q68 0 127 33t83.5 80.5t24.5 124.5v65q-84 -30 -176 -53q-124 -34 -157 -65q-34 -34 -34 -76z M507 1196l168 300h352l-325 -300h-195z" />
<glyph unicode="&#xe2;" d="M74 282q0 121 71 200q71 78 262 116q230 46 298.5 65t144.5 48q0 76 -31 106t-109 30q-101 0 -151 -32q-39 -26 -63 -95l-391 41q22 103 64 161.5t120 102.5q56 30 154.5 47.5t212.5 17.5q184 0 295.5 -20.5t185.5 -86.5q52 -45 82.5 -127.5t30.5 -158.5v-470 q0 -76 9.5 -118.5t40.5 -108.5h-383q-23 41 -30 62.5t-14 67.5q-80 -77 -160 -110q-108 -44 -251 -44q-191 0 -289.5 88t-98.5 218zM315 1196l230 287h290l222 -287h-248l-123 154l-122 -154h-249zM483 312q0 -48 33.5 -78.5t98.5 -30.5q68 0 127 33t83.5 80.5t24.5 124.5 v65q-84 -30 -176 -53q-124 -34 -157 -65q-34 -34 -34 -76z" />
<glyph unicode="&#xe3;" d="M74 282q0 121 71 200q71 78 262 116q230 46 298.5 65t144.5 48q0 76 -31 106t-109 30q-101 0 -151 -32q-39 -26 -63 -95l-391 41q22 103 64 161.5t120 102.5q56 30 154.5 47.5t212.5 17.5q184 0 295.5 -20.5t185.5 -86.5q52 -45 82.5 -127.5t30.5 -158.5v-470 q0 -76 9.5 -118.5t40.5 -108.5h-383q-23 41 -30 62.5t-14 67.5q-80 -77 -160 -110q-108 -44 -251 -44q-191 0 -289.5 88t-98.5 218zM323 1237q0 108 59 171t141 63q35 0 66 -8t114.5 -43t122.5 -35q27 0 43.5 18.5t18.5 67.5h159q1 -26 1 -45q0 -111 -56.5 -172.5 t-144.5 -61.5q-64 0 -195 54q-79 32 -109 31q-29 0 -45 -18t-17 -64h-157q-1 24 -1 42zM483 312q0 -48 33.5 -78.5t98.5 -30.5q68 0 127 33t83.5 80.5t24.5 124.5v65q-84 -30 -176 -53q-124 -34 -157 -65q-34 -34 -34 -76z" />
<glyph unicode="&#xe4;" d="M74 282q0 121 71 200q71 78 262 116q230 46 298.5 65t144.5 48q0 76 -31 106t-109 30q-101 0 -151 -32q-39 -26 -63 -95l-391 41q22 103 64 161.5t120 102.5q56 30 154.5 47.5t212.5 17.5q184 0 295.5 -20.5t185.5 -86.5q52 -45 82.5 -127.5t30.5 -158.5v-470 q0 -76 9.5 -118.5t40.5 -108.5h-383q-23 41 -30 62.5t-14 67.5q-80 -77 -160 -110q-108 -44 -251 -44q-191 0 -289.5 88t-98.5 218zM341 1200v251h261v-251h-261zM483 312q0 -48 33.5 -78.5t98.5 -30.5q68 0 127 33t83.5 80.5t24.5 124.5v65q-84 -30 -176 -53 q-124 -34 -157 -65q-34 -34 -34 -76zM766 1200v251h264v-251h-264z" />
<glyph unicode="&#xe5;" d="M74 282q0 121 71 200q71 78 262 116q230 46 298.5 65t144.5 48q0 76 -31 106t-109 30q-101 0 -151 -32q-39 -26 -63 -95l-391 41q22 103 64 161.5t120 102.5q56 30 154.5 47.5t212.5 17.5q184 0 295.5 -20.5t185.5 -86.5q52 -45 82.5 -127.5t30.5 -158.5v-470 q0 -76 9.5 -118.5t40.5 -108.5h-383q-23 41 -30 62.5t-14 67.5q-80 -77 -160 -110q-108 -44 -251 -44q-191 0 -289.5 88t-98.5 218zM443 1408q0 100 71 171t171 71q99 0 170 -71t71 -171q0 -101 -71 -171t-170 -70q-100 0 -171 70.5t-71 170.5zM483 312q0 -48 33.5 -78.5 t98.5 -30.5q68 0 127 33t83.5 80.5t24.5 124.5v65q-84 -30 -176 -53q-124 -34 -157 -65q-34 -34 -34 -76zM581 1409q0 -43 30 -73.5t73 -30.5t73 30.5t30 73.5t-30 73t-73 30t-73 -30t-30 -73z" />
<glyph unicode="&#xe6;" horiz-adv-x="2055" d="M69 286q0 69 32 130.5t82 97.5q65 47 141 73q36 12 172 38t175 37q67 17 157 47q-2 80 -32.5 109t-111.5 29q-86 0 -128 -30.5t-59 -97.5l-393 46q29 106 68 160q54 75 162.5 120.5t306.5 45.5q159 0 261 -28q74 -20 162 -78q92 59 168 82t179 23q154 0 265 -44 t181.5 -120t100.5 -151q39 -100 39 -275v-67h-773q11 -97 47 -144q55 -71 144 -71q50 0 87 22.5t71 77.5l399 -35q-82 -151 -210.5 -229t-344.5 -78q-166 0 -285 48q-90 36 -174 121q-123 -91 -234 -130t-246 -39q-204 0 -306.5 85.5t-102.5 224.5zM482 320q0 -46 33 -78 t87 -32q56 0 114 28t89 85q23 41 23 110v76l-125 -42q-24 -7 -42 -10q-100 -19 -139.5 -57.5t-39.5 -79.5zM1220 628h370q-8 104 -53 161t-126 57q-72 0 -124 -52.5t-67 -165.5z" />
<glyph unicode="&#xe7;" d="M74 528q0 164 56 274q42 80 113 143.5t147 95.5q119 49 305 49q261 0 398 -93.5t192 -272.5l-384 -52q-18 68 -65.5 103t-127.5 35q-102 0 -164.5 -73t-62.5 -220q0 -131 62 -199.5t159 -68.5q80 0 134.5 41t81.5 126l388 -44q-32 -121 -105 -209.5t-187 -138t-289 -49.5 q-170 0 -283 31.5t-194 102.5t-127.5 166t-46.5 253zM361 -283q104 -20 222 -20q86 0 117 23t31 60q0 29 -25.5 50.5t-78.5 21.5q-71 0 -167 -18l30 119q94 23 176 23q171 0 236.5 -58.5t65.5 -137.5q0 -48 -29.5 -99t-105.5 -82.5t-203 -31.5q-114 0 -269 27v123z" />
<glyph unicode="&#xe8;" d="M72 531q0 250 160 404.5t442 154.5q229 0 361.5 -69t201.5 -201t69 -342v-46h-818q11 -99 53 -147q59 -69 154 -69q61 0 115 30q33 19 71 67l402 -37q-92 -161 -222.5 -230.5t-374.5 -69.5q-211 0 -332.5 60t-201.5 189.5t-80 305.5zM344 1496h348l165 -299h-193z M489 627h402q-12 119 -63.5 170t-136.5 51q-97 0 -155 -77q-37 -48 -47 -144z" />
<glyph unicode="&#xe9;" d="M72 531q0 250 160 404.5t442 154.5q229 0 361.5 -69t201.5 -201t69 -342v-46h-818q11 -99 53 -147q59 -69 154 -69q61 0 115 30q33 19 71 67l402 -37q-92 -161 -222.5 -230.5t-374.5 -69.5q-211 0 -332.5 60t-201.5 189.5t-80 305.5zM489 627h402q-12 119 -63.5 170 t-136.5 51q-97 0 -155 -77q-37 -48 -47 -144zM507 1196l168 300h352l-325 -300h-195z" />
<glyph unicode="&#xea;" d="M72 531q0 250 160 404.5t442 154.5q229 0 361.5 -69t201.5 -201t69 -342v-46h-818q11 -99 53 -147q59 -69 154 -69q61 0 115 30q33 19 71 67l402 -37q-92 -161 -222.5 -230.5t-374.5 -69.5q-211 0 -332.5 60t-201.5 189.5t-80 305.5zM315 1196l230 287h290l222 -287h-248 l-123 154l-122 -154h-249zM489 627h402q-12 119 -63.5 170t-136.5 51q-97 0 -155 -77q-37 -48 -47 -144z" />
<glyph unicode="&#xeb;" d="M72 531q0 250 160 404.5t442 154.5q229 0 361.5 -69t201.5 -201t69 -342v-46h-818q11 -99 53 -147q59 -69 154 -69q61 0 115 30q33 19 71 67l402 -37q-92 -161 -222.5 -230.5t-374.5 -69.5q-211 0 -332.5 60t-201.5 189.5t-80 305.5zM341 1200v251h261v-251h-261z M489 627h402q-12 119 -63.5 170t-136.5 51q-97 0 -155 -77q-37 -48 -47 -144zM766 1200v251h264v-251h-264z" />
<glyph unicode="&#xec;" horiz-adv-x="684" d="M1 1496h348l165 -299h-193zM139 0v1066h408v-1066h-408z" />
<glyph unicode="&#xed;" horiz-adv-x="684" d="M139 0v1066h408v-1066h-408zM164 1196l168 300h352l-325 -300h-195z" />
<glyph unicode="&#xee;" horiz-adv-x="684" d="M-28 1196l230 287h290l222 -287h-248l-123 154l-122 -154h-249zM139 0v1066h408v-1066h-408z" />
<glyph unicode="&#xef;" horiz-adv-x="684" d="M-2 1200v251h261v-251h-261zM139 0v1066h408v-1066h-408zM423 1200v251h264v-251h-264z" />
<glyph unicode="&#xf0;" d="M75 533q0 146 66.5 271.5t186.5 193.5t243 68q60 0 117 -17q39 -13 95 -46q-69 119 -130 201l-294 -107l-37 107l254 91q-65 64 -117 102.5t-119 73.5h414q60 -32 113 -72l204 72l37 -101l-147 -54q167 -169 250.5 -351.5t83.5 -380.5q0 -286 -162 -447t-444 -161 q-191 0 -334 73t-211.5 208t-68.5 276zM485 530q0 -144 57.5 -211t140.5 -67q76 0 142 65.5t66 231.5q0 144 -65 202.5t-140 58.5q-85 0 -143 -67.5t-58 -212.5z" />
<glyph unicode="&#xf1;" d="M123 0v1066h381v-174q85 107 172.5 152.5t212.5 45.5q170 0 265.5 -101t95.5 -312v-677h-410v586q0 100 -37 142t-105 42q-74 0 -120 -56.5t-46 -201.5v-512h-409zM323 1237q0 108 59 171t141 63q35 0 66 -8t114.5 -43t122.5 -35q27 0 43.5 18.5t18.5 67.5h159 q1 -26 1 -45q0 -111 -56.5 -172.5t-144.5 -61.5q-64 0 -195 54q-79 32 -109 31q-29 0 -45 -18t-17 -64h-157q-1 24 -1 42z" />
<glyph unicode="&#xf2;" d="M74 530q0 244 164 402t445 158q320 0 483 -186q132 -149 132 -368q0 -246 -163.5 -403t-450.5 -157q-257 0 -416 130q-194 162 -194 424zM344 1496h348l165 -299h-193zM483 531q0 -143 57.5 -211t145.5 -68t144.5 67t56.5 216q0 139 -57 206.5t-142 67.5q-89 0 -147 -69 t-58 -209z" />
<glyph unicode="&#xf3;" d="M74 530q0 244 164 402t445 158q320 0 483 -186q132 -149 132 -368q0 -246 -163.5 -403t-450.5 -157q-257 0 -416 130q-194 162 -194 424zM483 531q0 -143 57.5 -211t145.5 -68t144.5 67t56.5 216q0 139 -57 206.5t-142 67.5q-89 0 -147 -69t-58 -209zM507 1196l168 300 h352l-325 -300h-195z" />
<glyph unicode="&#xf4;" d="M74 530q0 244 164 402t445 158q320 0 483 -186q132 -149 132 -368q0 -246 -163.5 -403t-450.5 -157q-257 0 -416 130q-194 162 -194 424zM315 1196l230 287h290l222 -287h-248l-123 154l-122 -154h-249zM483 531q0 -143 57.5 -211t145.5 -68t144.5 67t56.5 216 q0 139 -57 206.5t-142 67.5q-89 0 -147 -69t-58 -209z" />
<glyph unicode="&#xf5;" d="M74 530q0 244 164 402t445 158q320 0 483 -186q132 -149 132 -368q0 -246 -163.5 -403t-450.5 -157q-257 0 -416 130q-194 162 -194 424zM323 1237q0 108 59 171t141 63q35 0 66 -8t114.5 -43t122.5 -35q27 0 43.5 18.5t18.5 67.5h159q1 -26 1 -45q0 -111 -56.5 -172.5 t-144.5 -61.5q-64 0 -195 54q-79 32 -109 31q-29 0 -45 -18t-17 -64h-157q-1 24 -1 42zM483 531q0 -143 57.5 -211t145.5 -68t144.5 67t56.5 216q0 139 -57 206.5t-142 67.5q-89 0 -147 -69t-58 -209z" />
<glyph unicode="&#xf6;" d="M74 530q0 244 164 402t445 158q320 0 483 -186q132 -149 132 -368q0 -246 -163.5 -403t-450.5 -157q-257 0 -416 130q-194 162 -194 424zM341 1200v251h261v-251h-261zM483 531q0 -143 57.5 -211t145.5 -68t144.5 67t56.5 216q0 139 -57 206.5t-142 67.5q-89 0 -147 -69 t-58 -209zM766 1200v251h264v-251h-264z" />
<glyph unicode="&#xf7;" horiz-adv-x="1356" d="M127 572v327h1095v-327h-1095zM472 105v375h402v-375h-402zM472 990v371h402v-371h-402z" />
<glyph unicode="&#xf8;" d="M74 528q0 246 163 404t439 158q112 0 201 -21q59 -15 147 -59l133 150l104 -94l-124 -137q69 -58 114.5 -164.5t45.5 -230.5q0 -245 -161.5 -401.5t-440.5 -156.5q-113 0 -199 19q-59 13 -150 56l-133 -149l-106 98l128 135q-86 91 -123.5 184t-37.5 209zM455 524 q0 -54 17 -127l352 391q-28 27 -48 35q-40 16 -89 16q-101 0 -166.5 -77.5t-65.5 -237.5zM547 271q33 -26 54 -34q40 -15 88 -14q99 0 162.5 77.5t63.5 244.5q0 51 -17 117z" />
<glyph unicode="&#xf9;" d="M120 388v678h410v-586q0 -101 37 -143t104 -42q74 0 120.5 56t46.5 202v513h409v-1066h-382v172q-85 -106 -172 -151t-213 -45q-169 0 -264.5 100.5t-95.5 311.5zM344 1496h348l165 -299h-193z" />
<glyph unicode="&#xfa;" d="M120 388v678h410v-586q0 -101 37 -143t104 -42q74 0 120.5 56t46.5 202v513h409v-1066h-382v172q-85 -106 -172 -151t-213 -45q-169 0 -264.5 100.5t-95.5 311.5zM507 1196l168 300h352l-325 -300h-195z" />
<glyph unicode="&#xfb;" d="M120 388v678h410v-586q0 -101 37 -143t104 -42q74 0 120.5 56t46.5 202v513h409v-1066h-382v172q-85 -106 -172 -151t-213 -45q-169 0 -264.5 100.5t-95.5 311.5zM315 1196l230 287h290l222 -287h-248l-123 154l-122 -154h-249z" />
<glyph unicode="&#xfc;" d="M120 388v678h410v-586q0 -101 37 -143t104 -42q74 0 120.5 56t46.5 202v513h409v-1066h-382v172q-85 -106 -172 -151t-213 -45q-169 0 -264.5 100.5t-95.5 311.5zM341 1200v251h261v-251h-261zM766 1200v251h264v-251h-264z" />
<glyph unicode="&#xfd;" horiz-adv-x="1255" d="M5 1066h432l219 -710l204 710h402l-422 -1140q-72 -194 -148 -262q-106 -97 -324 -97q-88 0 -272 24l-33 286q88 -28 197 -28q72 0 116.5 33t76.5 118zM450 1196l168 300h352l-325 -300h-195z" />
<glyph unicode="&#xfe;" d="M125 -405v1876h413v-509q64 67 134.5 97.5t168.5 30.5q218 0 337.5 -160t119.5 -408q0 -266 -127 -406t-322 -140q-94 0 -172 32t-139 95v-508h-413zM535 530q0 -127 53 -188t135 -61q71 0 119 58.5t48 199.5q0 129 -50 190t-123 61q-78 0 -130 -61.5t-52 -198.5z" />
<glyph unicode="&#xff;" horiz-adv-x="1255" d="M5 1066h432l219 -710l204 710h402l-422 -1140q-72 -194 -148 -262q-106 -97 -324 -97q-88 0 -272 24l-33 286q88 -28 197 -28q72 0 116.5 33t76.5 118zM284 1200v251h261v-251h-261zM709 1200v251h264v-251h-264z" />
<glyph unicode="&#x152;" horiz-adv-x="2055" d="M71 731q0 383 174 591q147 174 377 174q134 0 226.5 -45.5t168.5 -134.5v155h944v-314h-544v-234h488v-300h-488v-290h574v-333h-974v163q-64 -93 -139 -135q-98 -54 -237 -54q-249 0 -393 169q-176 208 -177 588zM501 709q0 -165 31.5 -244t92 -118t119.5 -39 q61 0 123 42.5t90 121t28 278.5q0 162 -26.5 242.5t-86 123.5t-128.5 43q-75 0 -135.5 -47.5t-84 -127t-23.5 -275.5z" />
<glyph unicode="&#x153;" horiz-adv-x="2055" d="M59 545q0 276 202 433q143 112 375 112q112 0 198.5 -27t190.5 -97q92 63 186 93.5t212 30.5q268 0 422 -154.5t154 -427.5q0 -23 -2 -70h-776q9 -119 58.5 -169t128.5 -50q52 0 90 23t74 75l394 -36q-67 -150 -208 -227.5t-334 -77.5q-245 0 -417 119 q-99 -66 -181.5 -92.5t-183.5 -26.5q-259 0 -421 160t-162 409zM467 545q0 -149 44 -210t127 -61q85 0 131 58.5t46 225.5q0 140 -46 197.5t-116 57.5q-88 0 -137 -58.5t-49 -209.5zM1217 631h372q-13 119 -59 167.5t-122 48.5t-126.5 -50.5t-64.5 -165.5z" />
<glyph unicode="&#x178;" horiz-adv-x="1598" d="M2 1471h505l297 -496l297 496h502l-573 -855v-616h-455v616zM456 1564v251h261v-251h-261zM881 1564v251h264v-251h-264z" />
<glyph unicode="&#x2c6;" horiz-adv-x="684" d="M-28 1196l230 287h290l222 -287h-248l-123 154l-122 -154h-249z" />
<glyph unicode="&#x2dc;" horiz-adv-x="684" d="M-20 1237q0 108 59 171t141 63q35 0 66 -8t114.5 -43t122.5 -35q27 0 43.5 18.5t18.5 67.5h159q1 -26 1 -45q0 -111 -56.5 -172.5t-144.5 -61.5q-64 0 -195 54q-79 32 -109 31q-29 0 -45 -18t-17 -64h-157q-1 24 -1 42z" />
<glyph unicode="&#x2000;" horiz-adv-x="930" />
<glyph unicode="&#x2001;" horiz-adv-x="1860" />
<glyph unicode="&#x2002;" horiz-adv-x="930" />
<glyph unicode="&#x2003;" horiz-adv-x="1860" />
<glyph unicode="&#x2004;" horiz-adv-x="620" />
<glyph unicode="&#x2005;" horiz-adv-x="465" />
<glyph unicode="&#x2006;" horiz-adv-x="310" />
<glyph unicode="&#x2007;" horiz-adv-x="310" />
<glyph unicode="&#x2008;" horiz-adv-x="232" />
<glyph unicode="&#x2009;" horiz-adv-x="372" />
<glyph unicode="&#x200a;" horiz-adv-x="103" />
<glyph unicode="&#x2010;" horiz-adv-x="684" d="M45 378v316h594v-316h-594z" />
<glyph unicode="&#x2011;" horiz-adv-x="684" d="M45 378v316h594v-316h-594z" />
<glyph unicode="&#x2012;" horiz-adv-x="684" d="M45 378v316h594v-316h-594z" />
<glyph unicode="&#x2013;" horiz-adv-x="1027" d="M-12 425v223h1052v-223h-1052z" />
<glyph unicode="&#x2014;" horiz-adv-x="2055" d="M-12 425v223h2079v-223h-2079z" />
<glyph unicode="&#x2018;" horiz-adv-x="570" d="M70 677v336q0 186 77.5 293.5t265.5 189.5l94 -178q-116 -55 -160 -108.5t-49 -126.5h209v-406h-437z" />
<glyph unicode="&#x2019;" horiz-adv-x="570" d="M70 856q117 54 160.5 108t48.5 127h-209v405h437v-336q0 -186 -77.5 -293.5t-263.5 -189.5z" />
<glyph unicode="&#x201a;" horiz-adv-x="570" d="M70 0v405h437v-336q0 -186 -77.5 -293t-263.5 -190l-96 179q117 55 160.5 108t48.5 127h-209z" />
<glyph unicode="&#x201c;" horiz-adv-x="1027" d="M55 677v336q0 186 77.5 293.5t265.5 189.5l94 -178q-116 -55 -160 -108.5t-49 -126.5h209v-406h-437zM564 677v336q0 186 77.5 293.5t265.5 189.5l94 -178q-116 -55 -160 -108.5t-49 -126.5h209v-406h-437z" />
<glyph unicode="&#x201d;" horiz-adv-x="1027" d="M55 856q117 54 160.5 108t48.5 127h-209v405h437v-336q0 -186 -77.5 -293.5t-263.5 -189.5zM564 856q117 54 160.5 108t48.5 127h-209v405h437v-336q0 -186 -77.5 -293.5t-263.5 -189.5z" />
<glyph unicode="&#x201e;" horiz-adv-x="1027" d="M55 0v405h437v-336q0 -186 -77.5 -293t-263.5 -190l-96 179q117 55 160.5 108t48.5 127h-209zM564 0v405h437v-336q0 -186 -77.5 -293t-263.5 -190l-96 179q117 55 160.5 108t48.5 127h-209z" />
<glyph unicode="&#x2022;" horiz-adv-x="1027" d="M181 724q0 138 97 235.5t236 97.5t236 -97.5t97 -235.5t-97.5 -235.5t-235.5 -97.5q-139 0 -236 97.5t-97 235.5z" />
<glyph unicode="&#x2026;" horiz-adv-x="2055" d="M124 0v410h437v-410h-437zM810 0v410h437v-410h-437zM1494 0v410h437v-410h-437z" />
<glyph unicode="&#x202f;" horiz-adv-x="372" />
<glyph unicode="&#x2039;" horiz-adv-x="684" d="M23 535l320 465h313l-278 -465l278 -464h-313z" />
<glyph unicode="&#x203a;" horiz-adv-x="684" d="M29 71h313l320 464l-320 465h-313l278 -465z" />
<glyph unicode="&#x205f;" horiz-adv-x="465" />
<glyph unicode="&#x20ac;" d="M18 504l48 182h110q-2 16 -2 53q0 41 2 59h-133l47 182h110q130 516 716 516q192 0 388 -102l-90 -365q-136 126 -285 126q-194 0 -263 -175h362l-44 -182h-353q-2 -20 -2 -59v-53h374l-44 -182h-304q59 -188 257 -188q217 0 406 141v-375q-157 -107 -379 -107 q-358 0 -529.5 163.5t-209.5 365.5h-182z" />
<glyph unicode="&#x2122;" horiz-adv-x="1952" d="M36 1276v195h804v-195h-286v-623h-236v623h-282zM933 653v818h359l113 -446l119 446h348v-818h-222v578l-154 -578h-185l-152 578v-578h-226z" />
<glyph unicode="&#xe000;" horiz-adv-x="1063" d="M0 0v1064h1064v-1064h-1064z" />
<glyph unicode="&#xfb01;" d="M20 767v299h132v48q0 60 14 141t55 132.5t113 80t176 28.5q78 0 284 -23l-45 -246q-72 10 -104 10q-66 0 -93.5 -30t-27.5 -117v-24h183v-299h-183v-767h-372v767h-132zM874 0v1066h373v-1066h-373zM874 1193v278h373v-278h-373z" />
<glyph unicode="&#xfb02;" d="M20 767v299h132v48q0 60 14 141t55 132.5t113 80t176 28.5q78 0 284 -23l-45 -246q-72 10 -104 10q-66 0 -93.5 -30t-27.5 -117v-24h183v-299h-183v-767h-372v767h-132zM874 0v1471h373v-1471h-373z" />
</font>
</defs>
</svg>
